<svg id="Layer_1" data-name="Layer 1" xmlns="http://www.w3.org/2000/svg" viewBox="0 0 68.88 29.7"><defs><style>.cls-1{fill:#fff;fill-rule:evenodd;}</style></defs><path class="cls-1" d="M107.17,14.09h-6.93A2.29,2.29,0,0,0,98,16.37v5.94a2.29,2.29,0,0,0,2.27,2.27h6.93a2.29,2.29,0,0,0,2.27-2.27V16.37A2.29,2.29,0,0,0,107.17,14.09ZM81.78,6.27h-.85V6.12c.24,0,.37-.06.27-.24s.52-.29.63-.24S81.88,6.12,81.78,6.27Zm-1.17.22h1c-.1.18-.42.76-.63.76A1.89,1.89,0,0,1,80.61,6.49Zm19.69,9.88h6.84v5.94H100.3Zm-14.06,0h9.51a2.29,2.29,0,0,0-2.27-2.28H86.16a2.29,2.29,0,0,0-2.27,2.28v5.94a2.29,2.29,0,0,0,2.27,2.27h7.32a2.29,2.29,0,0,0,2.27-2.27V18.4H88a1.73,1.73,0,0,0,1.74,1.74h3.81v2.17H86.24Zm-29.72,0h9.09a2.29,2.29,0,0,0-2.27-2.28h-7A2.29,2.29,0,0,0,54,16.37v1.85a2.29,2.29,0,0,0,2.27,2.27h7v1.85H54a2.29,2.29,0,0,0,2.27,2.27h7.26a2.29,2.29,0,0,0,2.28-2.27V20.49a2.29,2.29,0,0,0-2.28-2.27h-7Zm-13.08,0H52a2.29,2.29,0,0,0-2.27-2.28H42.83a2.29,2.29,0,0,0-2.27,2.28v5.94a2.29,2.29,0,0,0,2.27,2.27h6.93A2.29,2.29,0,0,0,52,22.31H43.44ZM83.94,5.24a.31.31,0,0,1-.16.06c-.31.45-.13.39-.71.79a4.23,4.23,0,0,0,.21,1.53v0s0,0,0,0l-.45.11a3.79,3.79,0,0,1,0,.79,4.5,4.5,0,0,1-1.59,1.69c-.39.08-.84-.26-1.56-.58-.18-.08-.84-.5-1.19-.64s-.55.59-.21.77c.16.08.43.21.5.42.24.64,0,3.07-.52,3.54-.24,0-.45-.21-.61-.15-.32.18-.11,1.13,0,1.29,1.93,2,1.72,3.46,2.54,4.57.37,0,.13.4.42.87a2,2,0,0,1,0,.79v.61a.47.47,0,0,0-.06.19v.53c0,.26-.13.6-.18.84-.11.5.31.9,0,1.38,0,.29,0,.23-.18.47a9.49,9.49,0,0,0,0,1.77,5,5,0,0,0,1.16,1.35c.53.24,1.29.18,1,1-1.53.48-2.49-.26-3.3-.26l0,.13A4,4,0,0,1,78,29a9.79,9.79,0,0,1,.24-1.4,2,2,0,0,1,.18-.26,16.53,16.53,0,0,0-.07-1.91c-.32-.23-.4-1-.4-1.37A3.39,3.39,0,0,1,77.81,23c0-.19-.13-.48,0-.72s.24-.23.27-.37v-.44c.07-.48,0-.69-.24-1-.72,0-.82.05-1.19-.56a21.22,21.22,0,0,0-1.22-1.79c-.82-.37-.66-.21-1-.88a.8.8,0,0,0-.42.37A15.88,15.88,0,0,0,73,20c-.08.29,0,.58-.13.82s-.4.21-.45.34c-.29.53-.08.48-.63.85-.11.13-.11.32-.19.48a.93.93,0,0,0-.13.18c-.11.21.11.56,0,.69a9.71,9.71,0,0,1-.34.95c-.26.61-.21,1.4-.48,1.77-.13.18-.45,0-.68.16,0,.13-.4,1-.48,1.21v1.38c.08.23.27.45.21.74s-1.13.31-1.71.21c-.4-.05-.51-.35-.51-.69s.8-3,.77-3.12c-.61-.68.16-1.37.4-2,.1-.32,0-.74.15-1s.43-.77.64-1.17c.39-.37.21-.39.42-.71s.4-.48.27-.93c-.27-.87.29-2.11.34-3-.11-.11-.42-.08-.48-.35a2.55,2.55,0,0,1,.4-1.66c.08,0,.18,0,.24,0,0-.43-.43-2.81-.11-2.94s.66-.1.74-.16-.08-.31-.16-.31l-.66-.13c-.71-.16,0-3,0-3,.18-.26,1.11.08,1.22-.34.29-.4-.24-1.88.79-3.73.34-.61,1-1.24,1.79-1,.27.08.11.48.56.06a2.61,2.61,0,0,0-.16-.64C73.82.62,76.41-.62,78.24.67a2.29,2.29,0,0,1,.47.24c.11.53.61,1.43.11,2a2.15,2.15,0,0,0-.64.26,2.42,2.42,0,0,0,.06.53c0,.1.1.16-.08.24,0,0,0,.07,0,.1a2.35,2.35,0,0,0,1.16-.18h.34V3.47h.16V3.13H80v.58h.42V3.9h6.26v.31h.27V3h.24V4h.52v.56h1.67V4.4h.26v.08h.8v.45h-.8V5h-.26V4.85H87.69V5H87V4.9h-.32v.34Z" transform="translate(-40.56 -0.15)"/></svg>