<svg id="Layer_1" data-name="Layer 1" xmlns="http://www.w3.org/2000/svg" viewBox="0 0 103.24 28.79"><defs><style>.cls-1{fill:#fff;}</style></defs><path class="cls-1" d="M23.38,15c0,7.92,0,14.4.05,14.4l6-1.12.34-.06V17.64h4v-1c0-.53,0-1.91,0-3.07l0-2.1H29.78V6.87h2.38c1.32,0,2.39,0,2.39,0s.52-5.65.55-5.93l0-.31H23.38Z" transform="translate(-23.38 -0.6)"/><path class="cls-1" d="M121.06,1.44l-5.21.43v26l.21,0c.19,0,10.28.77,10.48.76a18.54,18.54,0,0,0,.08-3.23V22.22h-4.44v-4.7H126V11.9H122V8.18l.15,0c.08,0,.75-.05,1.49-.08L125.82,8l.8,0V1h-.18C126.34,1,123.92,1.2,121.06,1.44Z" transform="translate(-23.38 -0.6)"/><path class="cls-1" d="M87.6,2.34c.07.66.81,10.5.8,10.51s-1-2.34-2.13-5.24S84.12,2.33,84.1,2.28a40.18,40.18,0,0,0-4.8.89L79,3.23V25.67h5.81l0-.47c-.06-.87-.31-8.11-.28-8.39s.22.19,2.07,4.67c1.12,2.72,2.08,5,2.1,5a20.75,20.75,0,0,0,2.49-.15c1.34-.12,2.43-.22,2.43-.23s0-4.71-.07-10.46-.08-11.17-.08-12.07V2H87.57Z" transform="translate(-23.38 -0.6)"/><path class="cls-1" d="M41.63,2.37c-3.9.26-6.05,2.93-6.73,8.35A56.19,56.19,0,0,0,34.8,17c.33,4.32,1.5,7.13,3.57,8.56a7.45,7.45,0,0,0,4.46,1.08,6.11,6.11,0,0,0,4.33-1.8,7.68,7.68,0,0,0,2-3.35A25.94,25.94,0,0,0,50,12.91c-.18-3.68-.74-6-1.88-7.73a6.08,6.08,0,0,0-4.83-2.79c-.32,0-.66,0-.75-.06S42,2.34,41.63,2.37Zm.92,5.13c.48.52.68,2.57.68,7,0,5.42-.34,7.67-1.08,7.19-.32-.22-.56-1.27-.68-3-.09-1.27-.09-7.1,0-8.32.12-1.72.35-2.68.68-2.91S42.36,7.3,42.55,7.5Z" transform="translate(-23.38 -0.6)"/><path class="cls-1" d="M50.81,14.24V26.13h6l0-.83c0-.46.08-2,.12-3.35s.09-2.6.12-2.69A22,22,0,0,1,58.25,23c.62,2.15,1.15,3.93,1.18,4s6.17-.43,6.24-.49-.66-2.16-1.51-4.76L62.62,17l.33-.28a7.92,7.92,0,0,0,2.23-4.59,14.28,14.28,0,0,0-.13-3.47,7.92,7.92,0,0,0-4.59-5.87c-1-.35-.88-.35-5.42-.37l-4.23,0V14.24ZM57.54,8a2.41,2.41,0,0,1,1,1.63,9.14,9.14,0,0,1,0,2.81A2.37,2.37,0,0,1,57,14.28l-.15,0V7.78l.21,0A3.05,3.05,0,0,1,57.54,8Z" transform="translate(-23.38 -0.6)"/><path class="cls-1" d="M65.37,5.46v3H68.7V26H75V9.55h3.39V3.47l-.14,0c-.14,0-12.59-1-12.77-1A16.36,16.36,0,0,0,65.37,5.46Z" transform="translate(-23.38 -0.6)"/><path class="cls-1" d="M94.82,14.93V26.79h6.46V3.08H94.82Z" transform="translate(-23.38 -0.6)"/><path class="cls-1" d="M108.67,3.9l-6.55.35c-.11,0-.12.2-.12,3.08V10.4h3.34V27.57h6.33V9.68h3.52V6.61c0-1.69,0-3.06,0-3.06Z" transform="translate(-23.38 -0.6)"/></svg>