<svg id="Layer_1" data-name="Layer 1" xmlns="http://www.w3.org/2000/svg" viewBox="0 0 148.58 21.35"><defs><style>.cls-1{fill:#fff;fill-rule:evenodd;}</style></defs><path class="cls-1" d="M48.21,15A10.47,10.47,0,0,1,58.88,4.32,10.6,10.6,0,0,1,69.54,15,10.76,10.76,0,0,1,58.88,25.68,10.62,10.62,0,0,1,48.21,15Zm3.63,0a6.91,6.91,0,1,0,7-7A7,7,0,0,0,51.84,15ZM16.46,4.81h3.88a.24.24,0,0,1,.24.24L4.83,24.7c0,.25-.24.25-.73.25H1.2C1,25,.71,25,.71,24.7V5.05a.88.88,0,0,1,.49-.24H4.32l.25.24V19.12L15.73,5.05A.91.91,0,0,1,16.46,4.81Zm22.8,16.75h8.48c.13,0,.19,0,.22,0s0,.08,0,.19L45.57,24.7a.88.88,0,0,1-.73.25h-9c-.25,0-.49,0-.49-.25V5.05a.84.84,0,0,1,.49-.24h2.9a.88.88,0,0,1,.49.24ZM27.87,4.81a1.72,1.72,0,0,0-1.46.73L11.14,24.7c-.24.25,0,.25,0,.25h4.15A.89.89,0,0,0,16,24.7l5.31-6.8,5.32,6.8a.91.91,0,0,0,.75.25h3.15a.24.24,0,0,0,.24-.25V5.05l-.24-.24Zm-1,14.53L23.49,15l3.39-4.61ZM89.19,9.4c0,.24,0,.49-.25.49L84.11,16l7,8.73c0,.25,0,.25-.25.25H87a.87.87,0,0,1-.73-.25l-6.78-8.48v-.49l5.8-7.29H76.58V24.7h0c0,.12,0,.18,0,.22s-.09,0-.21,0H73.17c-.12,0-.18,0-.21,0s0-.1,0-.22V5.05a.24.24,0,0,1,.24-.24H88.68a.89.89,0,0,1,.51.24Zm37.57-4.59a.84.84,0,0,0-.49.24V19.12L115.35,5.05a.9.9,0,0,0-.73-.24h-3.15a.24.24,0,0,0-.24.24v9.46a.89.89,0,0,0,.24.73l3.15,3.88c0,.24.24,0,.24,0V10.88L126,24.7a.87.87,0,0,0,.73.25h3.14a.24.24,0,0,0,.25-.25V5.05l-.25-.24Zm19.38,0a.9.9,0,0,1,.73.24L149.29,8c0,.24,0,.48-.25.48h-6.78V24.7a.56.56,0,0,1,0,.22s-.1,0-.22,0h-3.14c-.13,0-.19,0-.22,0s0-.1,0-.22V8.44h-5.34a.52.52,0,0,1-.48-.48V5.05a.84.84,0,0,1,.48-.24Zm-48.47,0h-2.9a.88.88,0,0,0-.49.24V24.7c0,.25.25.25.49.25h2.9a.87.87,0,0,0,.73-.25l5.32-6.8,5.58,6.8c0,.25.25.25.73.25h3.88c.12,0,.18,0,.21,0s0-.1,0-.22L98.38,5.05A.85.85,0,0,0,97.67,4.81Zm.47,14.53v-9L101.77,15Z" transform="translate(-0.71 -4.32)"/></svg>