<svg viewBox="0 0 1279.96 1279.96" xmlns="http://www.w3.org/2000/svg" data-name="Layer 1" id="Layer_1"><path d="M425.11,671.84c-8.79-5.93-3.69-14-1.93-21.27,1.53-6.36,4.3-7.79,13-8.87.64-31-9.86-61.36-6.49-93.41l6.23,5c-4.91-14.12,7.61-12,14-16.65-8.52-2-16.27-4.18-24.16-5.49-4.76-.79-6.45-3.37-6.16-7.45.57-8,1.64-15.86,2.36-23.8,1.77-19.37,3.92-38.73,4.93-58.15.36-6.84,3.06-8.86,8.95-9.33,7.75-.62,15.48-1.49,23.21-2.28,5-.51,7-2.3,6.35-8.25-3.29-30.58-3.47-61,8.27-90.25,8.79-21.89,21.1-41.21,43.42-51.14,8.49-3.77,18.5-5.11,27.91-5.5,5.51-.23,11.19,3.6,18.12,6.08,3.5-1.8,4.87-5,2.48-11.26-13.48-35.39,4.33-79.8,37.8-95.09,22.13-10.12,43.61-8.93,64.41,4.16,7.25,4.57,15,8.43,22.56,12.46,4.22,2.23,6.48,5.14,5.67,10.25-.32,2,.49,4.31,1.24,6.3,4.72,12.4,7.54,25.06,6.39,38.45s-4.13,17.22-16.79,20.89c-8.37,2.43-8.34,2.42-7.3,11.24.64,5.49,1.21,11,2,18.32,7.44-1.54,14.49-2.92,21.49-4.48S717,289,724.58,287.2l5.85-23.15,1.74,0c.74,3.85,2.06,7.71,2.08,11.57,0,4.3,1.35,6.45,5.68,6.87s7.85,2.09,7.06,8.08H945.68V299l5.71,1V264.22l6.45-.93c4,11.42-3.92,24.66,6.44,35l4.67-3.84c3.52,3.89,3.52,3.89,2.67,16.06,17.82,0,36.13,2.6,53.23-.81,13.89-2.78,26.68,3.31,40.07-1.31V321.8c-10.81.66-21,1.59-31.18,1.72-3,0-6-3.14-9-3.2-18.15-.39-36.28-2.25-54.43,1.32-6.93,1.36-14.36.22-22.82.22.89-1.05.46-.78.41-.45-1.43,10.16-1.43,10.16-12.14,10.16-21.74,0-43.5-.14-65.24.08-7.47.08-13.12,3.3-17.66,10-4.28,6.3-10.15,11.75-16.11,16.61-3.8,3.11-5.78,6.14-4.91,10.8,2.08,11.05,4.3,22.07,6.47,33.1.55,2.79,1.16,5.57,1.84,8.82-2.63.9-5,2.23-7.57,2.5-7,.77-9.44,5.3-10.52,11.44-1.45,8.27-2.92,16.54-4.76,24.72-1.89,8.34-6.65,14.7-13.84,19.56-4.89,3.31-8.86,8-13.81,11.23-6,3.91-12.6,6.92-19,10.32l-.88-1.56c.05,1.08.1,2.16.17,3.73-1.19-.47-2.32-.56-2.54-1.05-1.59-3.62-4.6-4.45-8.16-5-20.65-3.15-38.74-12.78-56.75-22.6l-20.27-11c-1.79,7.49-3.44,14.37-5.08,21.22,17.48,8,22.42,16.36,21.08,35.85-1.4,20.43-1.94,41-4.88,61.22-1.44,9.92-7.18,19.32-11.63,28.65-.91,1.89-4.74,3.08-7.33,3.27-2.93.22-6-.8-8.95-1.73-7.86-2.53-13.4,2.47-11.81,10.85.72,3.82,1.48,7.63,2.17,11.45a36.78,36.78,0,0,0,9.44,19.43c28.3,30.42,45.67,67.22,60.46,105.45,3.24,8.4,6.25,16.89,9.63,25.24.95,2.35,2.4,5.5,4.38,6.24,5.55,2,5.79,6.41,6.76,11s3,9,4.37,13.61a28.55,28.55,0,0,1,1.16,7.11c.86,31.29-3.69,62.11-7.73,93-1.08,8.29.78,17,1.82,25.52,1.31,10.82.83,21.15-4.68,31a21.21,21.21,0,0,0-2.74,9.89c0,13.93-.31,27.93,1.05,41.75.56,5.63,4.48,11.27,7.92,16.17,4.21,6,9.64,11.17,14.31,16.88,6.12,7.49,13.27,12.94,22.91,15.58,6.62,1.82,12.84,5.29,19,8.5,6.38,3.31,9.71,16.86,5.73,22.72-.73,1.08-2.7,1.71-4.15,1.82-9.18.71-18.37,1.38-27.56,1.75-21.19.85-42-.56-62.5-7.19-8.29-2.67-18.2,0-27.3-.62a74.16,74.16,0,0,1-18.76-4.06c-1.75-.61-3.61-5.15-3.11-7.35,3.77-16.51,8.57-32.78,12-49.34,1.49-7.08,1-14.68.74-22-.35-10.43-1.27-20.85-2-31.26-.08-1.14-.34-2.85-1.09-3.27-5.43-3.05-5.42-8.11-5.37-13.28a9.2,9.2,0,0,0-.59-3c-8.71-24.73-7.8-50.88-10.83-76.41-.63-5.3,3.77-11.2,5.89-16.8,1-2.58,2.57-5,3-7.7.86-5.86.53-12,1.81-17.7,1.94-8.64-3.63-13.85-7.87-19.68-.66-.9-3.27-.9-4.82-.57-12.66,2.7-22.2-1-29.44-12.17-13-19.93-26.63-39.4-39.77-59.21-2.31-3.48-4.92-5.49-9-4.95-10.07,1.35-15.62-4.14-19.55-12.39-1.85-3.87-3.89-7.65-6.14-12-1.05,1.4-2.2,2.3-2.54,3.45-3,10.29-9.61,18.22-16.17,26.42-4.13,5.17-7,11.58-9.41,17.83-6.65,17.33-14.53,34.31-15.85,53.27-.55,7.84-4.67,13.6-11.34,18a22.11,22.11,0,0,0-7.23,8.69,63.8,63.8,0,0,1-14.75,20c-8.77,8.14-13.93,19.2-12.06,31.44a47.7,47.7,0,0,1-3.5,26.32c-4,9.63-8.68,19-12.69,28.61-3.62,8.67-6.89,17.49-10,26.35-3.33,9.4-6.42,18.8-17.44,22.13a5.08,5.08,0,0,0-2.49,2.46c-12.91,24.61-20,50.38-12.93,78.1,2.23,8.77,5.8,17.14,4,26.33-.36,1.86-2.47,4.7-4,4.83-19.38,1.72-38.77,3.8-58.18-.25-4.27-.89-6.31-2.81-7.4-6.85a62.32,62.32,0,0,1-.2-31c6.23-26.06,12.79-52,19.14-78.08.37-1.49.74-3.49.07-4.64-7.8-13.4-4.91-26.78-.06-40.1a32.88,32.88,0,0,1,5-9.14c7.36-9.23,9.3-20,10.82-31.35a67.22,67.22,0,0,1,7-22.59c7.14-13.28,16.06-25.59,23.47-38.74,5.4-9.57,9.72-19.78,14.11-29.87a13.33,13.33,0,0,0,.62-8.42c-4.09-13.55-1.08-26.9.78-40.21,2.57-18.45,5.77-36.82,8.65-55.23.21-1.33.53-3.27-.17-4-6.66-7.2-5.69-16.48-6.6-25C421.5,680.61,423.79,676.62,425.11,671.84ZM765.65,396.3c5.1-5.95,10.26-11.35,14.69-17.3,3.88-5.23,6.25-11.68,10.55-16.47,5.33-5.94,1.63-11.2.25-16.57s-6.25-2.51-9.4-2.59c-8.07-.2-11.5,5-8.86,13-5.11,2.83-10.31,5.65-15.47,8.56-4.45,2.52-5.89,5.61-2.87,10.56C758.37,381.74,761.5,388.44,765.65,396.3Z" fill="currentColor"></path></svg>